<?xml version="1.0" standalone="no"?>
<!DOCTYPE svg PUBLIC "-//W3C//DTD SVG 20010904//EN"
 "http://www.w3.org/TR/2001/REC-SVG-20010904/DTD/svg10.dtd">
<svg version="1.0" xmlns="http://www.w3.org/2000/svg"
 width="512.000000pt" height="512.000000pt" viewBox="0 0 512.000000 512.000000"
 preserveAspectRatio="xMidYMid meet">

<g transform="translate(0.000000,512.000000) scale(0.100000,-0.100000)"
fill="#000000" stroke="none">
<path d="M1123 4100 c-135 -27 -238 -137 -263 -280 -8 -46 -10 -362 -8 -1070
l3 -1005 24 -58 c31 -78 110 -157 188 -188 l58 -24 680 0 c599 0 680 2 676 15
-2 8 -10 50 -19 93 l-17 77 -645 0 c-609 0 -647 1 -680 19 -19 10 -44 30 -55
45 -19 26 -20 44 -23 324 l-2 297 67 56 c38 31 208 173 380 317 l312 262 271
-400 c149 -220 280 -404 290 -410 49 -26 112 0 129 53 5 18 47 146 92 286 l81
253 77 -75 76 -76 30 25 c17 14 49 37 73 51 24 14 42 29 40 33 -2 5 -74 76
-161 159 -146 140 -160 151 -195 151 -20 0 -46 -7 -57 -16 -13 -10 -49 -103
-110 -285 l-91 -270 -234 356 c-129 197 -244 363 -255 371 -26 19 -64 18 -97
-4 -29 -18 -513 -417 -640 -527 l-78 -66 0 613 c0 594 1 614 20 646 11 18 34
41 52 52 32 20 53 20 1203 20 1121 0 1172 -1 1205 -19 20 -10 44 -36 57 -61
23 -43 23 -48 23 -397 l0 -353 -77 -73 c-43 -39 -100 -93 -128 -119 l-50 -47
130 0 c77 0 163 -6 210 -15 44 -9 83 -16 88 -16 4 0 7 228 7 508 0 505 -1 507
-23 563 -29 70 -66 117 -126 157 -95 64 -46 62 -1316 61 -632 -1 -1169 -5
-1192 -9z"/>
<path d="M2578 3686 c-49 -13 -63 -21 -116 -70 -101 -92 -108 -257 -17 -364
135 -157 396 -106 461 91 20 62 15 147 -14 203 -24 47 -91 110 -136 129 -50
21 -126 26 -178 11z m155 -186 c53 -60 25 -159 -52 -180 -76 -20 -141 30 -141
108 0 43 28 87 64 103 40 17 99 3 129 -31z"/>
<path d="M3290 2563 c-14 -2 -54 -13 -90 -24 -182 -57 -326 -181 -411 -355
-168 -345 -23 -753 326 -920 182 -87 415 -85 595 6 34 17 69 28 79 25 9 -3 73
-68 142 -144 68 -77 126 -140 129 -140 3 -1 50 41 105 93 l100 93 -90 98
c-136 148 -185 205 -185 216 0 5 11 31 24 58 56 109 71 177 71 316 0 110 -4
141 -23 200 -41 122 -80 184 -176 280 -104 103 -188 152 -320 185 -74 19 -205
25 -276 13z m235 -178 c100 -26 165 -63 241 -139 207 -208 207 -515 0 -722
-205 -205 -519 -207 -724 -4 -205 203 -204 520 2 726 133 132 309 183 481 139z"/>
<path d="M2237 1233 c-52 -72 -77 -117 -77 -135 l0 -28 85 0 85 0 0 -35 c0
-32 2 -35 30 -35 28 0 30 3 30 35 0 28 4 35 20 35 16 0 20 7 20 30 0 23 -4 30
-20 30 -19 0 -20 7 -20 105 l0 105 -38 0 c-36 0 -40 -4 -115 -107z m93 -38 l0
-65 -50 0 c-27 0 -50 3 -50 6 0 7 90 124 96 124 2 0 4 -29 4 -65z"/>
<path d="M2482 1200 l3 -140 31 -31 c61 -60 174 -47 207 24 13 27 17 64 17
161 l0 126 -30 0 -30 0 0 -115 c0 -66 -5 -125 -12 -140 -13 -28 -45 -40 -82
-31 -35 9 -46 52 -46 177 l0 109 -31 0 -31 0 4 -140z"/>
</g>
</svg>
